<svg width="25" height="25" viewBox="0 0 25 25" fill="none" xmlns="http://www.w3.org/2000/svg">
<path d="M23.6076 4.88199C23.5969 4.6985 23.5192 4.52534 23.3892 4.39538C23.2593 4.26542 23.0861 4.1877 22.9026 4.17699C18.0501 3.89574 14.1539 5.37136 12.4795 8.13511C11.3732 9.9623 11.3751 12.1814 12.4645 14.2982C11.8443 15.0363 11.3912 15.8998 11.1361 16.8295L9.61074 15.2985C10.3439 13.7676 10.3157 12.172 9.51699 10.8464C8.27949 8.80355 5.42293 7.70855 1.87636 7.91667C1.69288 7.92739 1.51972 8.00511 1.38976 8.13507C1.25979 8.26503 1.18208 8.43819 1.17136 8.62167C0.962301 12.1682 2.05824 15.0248 4.10105 16.2623C4.77514 16.6743 5.5498 16.8922 6.3398 16.8923C7.10657 16.8828 7.86141 16.7011 8.54855 16.3607L10.8923 18.7045L10.8923 21.3923C10.8923 21.5912 10.9713 21.782 11.112 21.9226C11.2526 22.0633 11.4434 22.1423 11.6423 22.1423C11.8412 22.1423 12.032 22.0633 12.1726 21.9226C12.3133 21.782 12.3923 21.5912 12.3923 21.3923L12.3923 18.6276C12.3889 17.4344 12.7949 16.2762 13.5426 15.3464C14.5072 15.8505 15.5771 16.1203 16.6654 16.1339C17.7177 16.1373 18.7503 15.8498 19.6495 15.3032C22.4132 13.6307 23.8926 9.73449 23.6076 4.88199ZM4.87449 14.9798C3.43636 14.1089 2.62261 12.0473 2.6423 9.3923C5.2973 9.3698 7.35886 10.1864 8.2298 11.6245C8.68449 12.3745 8.75855 13.2492 8.46043 14.1501L6.17199 11.8617C6.03019 11.727 5.84138 11.653 5.64581 11.6555C5.45024 11.658 5.26338 11.7368 5.12508 11.8751C4.98678 12.0134 4.90798 12.2002 4.90547 12.3958C4.90297 12.5914 4.97696 12.7802 5.11168 12.922L7.40011 15.2104C6.49918 15.5085 5.62543 15.4345 4.87449 14.9798ZM18.8723 14.0217C17.6161 14.782 16.1395 14.8401 14.6395 14.2092L19.6729 9.1748C19.8076 9.033 19.8816 8.84419 19.8791 8.64862C19.8766 8.45305 19.7978 8.26619 19.6595 8.12789C19.5212 7.98959 19.3344 7.91079 19.1388 7.90828C18.9432 7.90578 18.7544 7.97977 18.6126 8.11449L13.5782 13.1423C12.9445 11.6423 13.0017 10.1648 13.7657 8.90949C15.0726 6.75324 18.172 5.55136 22.1404 5.64417C22.2304 9.61167 21.0304 12.7148 18.8723 14.0217Z" fill="#5E5E5E"/>
</svg>
