<svg width="24" height="24" viewBox="0 0 24 24" fill="none" xmlns="http://www.w3.org/2000/svg">
<g clip-path="url(#clip0_6_3)">
<path d="M11.6265 0.762752C11.1615 0.724502 10.7385 0.765752 10.299 0.974252C10.0964 1.0613 9.90829 1.17864 9.741 1.32225L9.52275 1.48725L9.513 1.53375L8.7795 2.3085L4.5225 6.74325L4.521 6.74475C4.42235 6.84782 4.33579 6.9618 4.263 7.0845L4.15275 7.2L2.89275 10.0245L2.7105 10.4333L1.4805 12.708C1.46722 12.7313 1.4552 12.7554 1.4445 12.78C1.2945 13.0635 1.1985 13.3605 1.1445 13.665L1.14225 13.6793L0.734249 16.6492L1.12575 17.8253C1.43224 18.7511 1.95195 19.5926 2.643 20.2808L3.3405 20.9783C3.81576 21.4573 4.36662 21.8549 4.971 22.155L5.9925 22.662L5.99475 22.6635C6.86895 23.1035 7.83458 23.3311 8.81325 23.328H8.81475L11.25 23.322V23.328H17.7945C18.462 23.3167 19.233 22.977 19.686 22.4603C19.8456 22.3148 19.9906 22.154 20.1187 21.9802L20.1765 21.9022L22.665 19.0687C22.9043 18.7964 23.0789 18.4735 23.1755 18.124C23.2722 17.7746 23.2884 17.4078 23.223 17.0513L23.1352 16.581C23.1259 16.4398 23.1066 16.2995 23.0775 16.161V16.1572L22.7647 14.571L22.7692 14.565L22.0732 11.064C21.9222 10.2791 21.4883 9.57615 20.8537 9.09L18.1312 6.66975L16.3987 3.465L16.3852 3.444C16.0695 2.94 15.7852 2.526 15.3997 2.20275C15.0052 1.87125 14.556 1.6755 13.9897 1.49025L13.0545 1.16025L12.672 1.026L12.6667 1.0245L12.5992 0.998252C12.5242 0.970234 12.4484 0.944224 12.372 0.920252C12.1345 0.844118 11.8901 0.791859 11.6422 0.764252L11.6347 0.763502L11.6265 0.762752ZM17.775 21.828H12.75V19.4452L19.6462 18.357L21.6712 16.9103L21.747 17.3198V17.3212C21.7965 17.5957 21.7215 17.871 21.54 18.0765L19.008 20.9595L18.912 21.0892L18.9105 21.0908C18.835 21.1938 18.75 21.2867 18.6555 21.3697L18.6202 21.4012L18.5617 21.468L18.5595 21.4695C18.399 21.6547 18.036 21.822 17.775 21.828ZM8.6325 15.4605L12 18.828L3.75 16.578L4.3425 14.2305C4.44 13.8105 4.7025 13.458 5.07 13.233L8.25 11.328V14.538C8.25 14.883 8.385 15.213 8.6325 15.4605ZM8.25 11.328L6.29625 7.0605L9.864 3.34575L9.915 3.29175L8.25 11.328ZM13.635 15.408C13.14 15.183 12.885 14.6205 13.0425 14.0955L14.67 8.6745L20.529 11.0865C20.559 11.172 20.583 11.2603 20.601 11.3513V11.3528L21.1657 14.1953L21.1627 14.1998L21.534 16.086L19.3537 17.643L18.7597 17.7375L13.635 15.408ZM14.8875 7.953L15 7.578L15.519 4.992L16.938 7.6155L19.413 9.816L14.8875 7.953ZM2.54025 17.328H3.65025L11.25 19.4003V21.822L8.8125 21.828H8.811C8.06697 21.8308 7.3328 21.6579 6.66825 21.3232L5.63625 20.811L5.634 20.8102C5.1765 20.5826 4.75966 20.281 4.40025 19.9177L3.70275 19.2203C3.17843 18.6968 2.78369 18.0581 2.55 17.355L2.54025 17.328ZM12.135 2.42775L12.5587 2.57625C12.804 2.66175 13.1385 2.78025 13.4977 2.907L13.5067 2.91L13.5157 2.913C14.0242 3.0795 14.259 3.2025 14.436 3.351C14.5897 3.48 14.736 3.6585 14.9557 3.99225L14.2725 7.395L12.3247 13.8787C12.196 14.306 12.2264 14.7654 12.4103 15.1719C12.5943 15.5784 12.9193 15.9045 13.3252 16.0897L16.4977 17.5313L12.273 18.039L9.1635 14.9295C9.11162 14.8783 9.07049 14.8172 9.04254 14.7498C9.0146 14.6824 9.00039 14.6102 9.00075 14.5372V11.4038L10.8735 2.36475C10.9477 2.3235 11.0085 2.29875 11.0632 2.28225C11.1607 2.25375 11.2852 2.2395 11.496 2.256C11.6437 2.2725 11.7982 2.3115 11.925 2.3505C11.9864 2.37004 12.0472 2.39155 12.1072 2.415L12.114 2.418L12.135 2.42775ZM2.805 13.4175L2.81775 13.3942V13.3928L4.05525 11.1045L5.3805 8.13C5.40349 8.07325 5.43624 8.02096 5.47725 7.9755L5.7525 7.67475L7.2885 11.0295L4.6845 12.5895L4.6785 12.5933C4.41311 12.7538 4.18229 12.9655 3.99946 13.2161C3.81662 13.4666 3.68543 13.751 3.6135 14.0528L3.16575 15.828H2.36025L2.62275 13.9125C2.65217 13.7485 2.70869 13.5906 2.79 13.4453L2.79375 13.4385L2.805 13.4175Z" fill="white"/>
</g>
<defs>
<clipPath id="clip0_6_3">
<rect width="24" height="24" fill="white"/>
</clipPath>
</defs>
</svg>
